<svg xmlns="http://www.w3.org/2000/svg" version="1.1" xmlns:xlink="http://www.w3.org/1999/xlink" xmlns:svgjs="http://svgjs.dev/svgjs" width="1920" height="1080" preserveAspectRatio="none" viewBox="0 0 1920 1080"><g mask="url(&quot;#SvgjsMask2142&quot;)" fill="none"><rect width="1920" height="1080" x="0" y="0" fill="url(&quot;#SvgjsLinearGradient2143&quot;)"></rect><path d="M18 1080L1098 0L1938 0L858 1080z" fill="url(&quot;#SvgjsLinearGradient2144&quot;)"></path><path d="M655.6 1080L1735.6 0L2185.6 0L1105.6 1080z" fill="url(&quot;#SvgjsLinearGradient2144&quot;)"></path><path d="M1827 1080L747 0L-57 0L1023 1080z" fill="url(&quot;#SvgjsLinearGradient2145&quot;)"></path><path d="M1181.4 1080L101.40000000000009 0L-566.0999999999999 0L513.9000000000001 1080z" fill="url(&quot;#SvgjsLinearGradient2145&quot;)"></path><path d="M1022.9275894496817 1080L1920 182.9275894496817L1920 1080z" fill="url(&quot;#SvgjsLinearGradient2144&quot;)"></path><path d="M0 1080L897.0724105503183 1080L 0 182.9275894496817z" fill="url(&quot;#SvgjsLinearGradient2145&quot;)"></path></g><defs><mask id="SvgjsMask2142"><rect width="1920" height="1080" fill="#ffffff"></rect></mask><linearGradient x1="10.94%" y1="-19.44%" x2="89.06%" y2="119.44%" gradientUnits="userSpaceOnUse" id="SvgjsLinearGradient2143"><stop stop-color="rgba(190, 124, 77, 1)" offset="0"></stop><stop stop-color="rgba(193, 180, 174, 1)" offset="0.38"></stop><stop stop-color="rgba(193, 180, 174, 1)" offset="1"></stop></linearGradient><linearGradient x1="0%" y1="100%" x2="100%" y2="0%" id="SvgjsLinearGradient2144"><stop stop-color="rgba(15, 70, 185, 0.2)" offset="0"></stop><stop stop-opacity="0" stop-color="rgba(15, 70, 185, 0.2)" offset="0.66"></stop></linearGradient><linearGradient x1="100%" y1="100%" x2="0%" y2="0%" id="SvgjsLinearGradient2145"><stop stop-color="rgba(15, 70, 185, 0.2)" offset="0"></stop><stop stop-opacity="0" stop-color="rgba(15, 70, 185, 0.2)" offset="0.66"></stop></linearGradient></defs></svg>